
<svg width="406px" height="450px" viewBox="0 0 406 450" version="1.1" xmlns="http://www.w3.org/2000/svg" xmlns:xlink="http://www.w3.org/1999/xlink">
    <defs>
        <linearGradient x1="50%" y1="0%" x2="50%" y2="100%" id="linearGradient-1">
            <stop stop-color="#FAD961" offset="0%"></stop>
            <stop stop-color="#F76B1C" offset="100%"></stop>
        </linearGradient>
        <linearGradient x1="50%" y1="0%" x2="50%" y2="100%" id="linearGradient-2">
            <stop stop-color="#FAD961" offset="0%"></stop>
            <stop stop-color="#F76B1C" offset="100%"></stop>
        </linearGradient>
        <linearGradient x1="50%" y1="0%" x2="50%" y2="100%" id="linearGradient-3">
            <stop stop-color="#FAD961" offset="0%"></stop>
            <stop stop-color="#F76B1C" offset="100%"></stop>
        </linearGradient>
    </defs>
    <g id="Page-1" stroke="none" stroke-width="1" fill="none" fill-rule="evenodd">
        <g id="LokalFokal_Image" transform="translate(-298.000000, -248.000000)">
            <g id="Group" transform="translate(384.386885, 248.000000)">
                <path d="M93.6990529,199.207031 C86.8081024,207.519206 77.1974253,219.745117 64.8670216,235.884766 C108.206865,247.751953 122.111162,310.734375 122.111162,339.445312 C139.857256,307.489258 154.252927,281.679687 165.298174,262.016602 L93.6990529,199.207031 Z" id="Path-3" fill="url(#linearGradient-1)"></path>
                <path d="M37.9905568,34.2631836 C30.0957,43.2628581 31.9555633,53.3404948 43.5701466,64.4960937 C78.151743,93.5598536 117.864814,121.695184 162.709359,148.902084 C189.649968,165.24678 198.991648,199.876875 183.925934,227.553034 L164.613115,263.03125 L164.613115,263.03125 C125.030397,226.218978 81.515749,193.97525 34.0691701,166.300066 C16.5818654,156.099871 -4.50735703,143.755009 0.847490375,126.634051 C13.6150685,85.8125 13.6150685,93.7128906 17.9021779,64.4960937 C20.7602508,45.0182292 27.4563771,34.9405924 37.9905568,34.2631836 Z" id="Path-2" fill="url(#linearGradient-2)"></path>
                <path d="M222.167803,1.42108547e-14 C179.725746,10.8365885 118.796709,22.1402995 39.3806935,33.9111328 C30.0144826,35.3779297 27.6043263,53.5117187 42.5701466,64.4960937 C61.5421518,82.2669271 91.0434539,104.132161 131.074053,130.091797 L213.740711,117.475324 C183.561897,92.1896914 168.47249,77.4947917 168.47249,73.390625 C168.47249,69.2864583 186.370928,44.8229167 222.167803,1.42108547e-14 Z" id="Path" fill="url(#linearGradient-3)"></path>
            </g>
            <path d="M366.112,668.534109 C366.112,673.286133 365.059011,677.822088 362.953,682.142109 C360.846989,686.462131 357.472023,690.026095 352.828,692.834109 C348.183977,695.642123 342.298036,697.046109 335.17,697.046109 C328.365966,697.046109 322.345026,695.696123 317.107,692.996109 C311.868974,690.296096 307.711015,686.786131 304.633,682.466109 C301.554985,678.146088 299.746003,673.502134 299.206,668.534109 L302.446,668.534109 C302.986003,672.206128 304.470988,676.01309 306.901,679.955109 C309.331012,683.897129 312.921976,687.245096 317.674,689.999109 C322.426024,692.753123 328.257965,694.130109 335.17,694.130109 C344.134045,694.130109 350.991976,691.700134 355.744,686.840109 C360.496024,681.980085 362.872,675.878146 362.872,668.534109 C362.872,662.270078 361.441014,657.248128 358.579,653.468109 C355.716986,649.68809 352.207021,646.826119 348.049,644.882109 C343.890979,642.9381 338.302035,640.94012 331.282,638.888109 C324.153964,636.836099 318.430022,634.811119 314.11,632.813109 C309.789978,630.815099 306.145015,627.845129 303.175,623.903109 C300.204985,619.96109 298.72,614.642143 298.72,607.946109 C298.72,600.06207 301.392973,593.555135 306.739,588.425109 C312.085027,583.295084 319.671951,580.730109 329.5,580.730109 C339.220049,580.730109 346.941971,583.214085 352.666,588.182109 C358.390029,593.150134 361.953993,598.874077 363.358,605.354109 L360.118,605.354109 C359.361996,602.114093 357.796012,598.847126 355.42,595.553109 C353.043988,592.259093 349.696022,589.451121 345.376,587.129109 C341.055978,584.807098 335.764031,583.646109 329.5,583.646109 C321.183958,583.646109 314.515025,585.779088 309.493,590.045109 C304.470975,594.311131 301.96,600.278071 301.96,607.946109 C301.96,613.886139 303.336986,618.638092 306.091,622.202109 C308.845014,625.766127 312.21998,628.4661 316.216,630.302109 C320.21202,632.138119 325.719965,634.082099 332.74,636.134109 C339.976036,638.18612 345.807978,640.238099 350.236,642.290109 C354.664022,644.34212 358.416985,647.474088 361.495,651.686109 C364.573015,655.89813 366.112,661.514074 366.112,668.534109 Z M392.842,581.864109 L392.842,695.912109 L389.602,695.912109 L389.602,581.864109 L392.842,581.864109 Z M482.752,695.912109 L447.922,646.178109 L423.622,646.178109 L423.622,695.912109 L420.382,695.912109 L420.382,581.864109 L449.218,581.864109 C461.638062,581.864109 470.81797,584.726081 476.758,590.450109 C482.69803,596.174138 485.668,604.058059 485.668,614.102109 C485.668,624.25416 482.779029,632.030082 477.001,637.430109 C471.222971,642.830136 462.772056,645.746107 451.648,646.178109 L486.802,695.912109 L482.752,695.912109 Z M423.622,642.776109 L449.218,642.776109 C471.358111,642.776109 482.428,633.218205 482.428,614.102109 C482.428,604.814063 479.836026,597.659134 474.652,592.637109 C469.467974,587.615084 460.990059,585.104109 449.218,585.104109 L423.622,585.104109 L423.622,642.776109 Z M510.292,581.864109 L510.292,695.912109 L507.052,695.912109 L507.052,581.864109 L510.292,581.864109 Z M540.262,581.864109 L540.262,652.658109 C540.262,667.130182 543.420968,677.660076 549.739,684.248109 C556.057032,690.836142 564.615946,694.130109 575.416,694.130109 C586.000053,694.130109 594.369969,690.836142 600.526,684.248109 C606.682031,677.660076 609.76,667.130182 609.76,652.658109 L609.76,581.864109 L613,581.864109 L613,652.658109 C613,667.778185 609.679033,678.956073 603.037,686.192109 C596.394967,693.428146 587.188059,697.046109 575.416,697.046109 C563.643941,697.046109 554.302035,693.401146 547.39,686.111109 C540.477965,678.821073 537.022,667.670184 537.022,652.658109 L537.022,581.864109 L540.262,581.864109 Z M703.072,668.534109 C703.072,673.286133 702.019011,677.822088 699.913,682.142109 C697.806989,686.462131 694.432023,690.026095 689.788,692.834109 C685.143977,695.642123 679.258036,697.046109 672.13,697.046109 C665.325966,697.046109 659.305026,695.696123 654.067,692.996109 C648.828974,690.296096 644.671015,686.786131 641.593,682.466109 C638.514985,678.146088 636.706003,673.502134 636.166,668.534109 L639.406,668.534109 C639.946003,672.206128 641.430988,676.01309 643.861,679.955109 C646.291012,683.897129 649.881976,687.245096 654.634,689.999109 C659.386024,692.753123 665.217965,694.130109 672.13,694.130109 C681.094045,694.130109 687.951976,691.700134 692.704,686.840109 C697.456024,681.980085 699.832,675.878146 699.832,668.534109 C699.832,662.270078 698.401014,657.248128 695.539,653.468109 C692.676986,649.68809 689.167021,646.826119 685.009,644.882109 C680.850979,642.9381 675.262035,640.94012 668.242,638.888109 C661.113964,636.836099 655.390022,634.811119 651.07,632.813109 C646.749978,630.815099 643.105015,627.845129 640.135,623.903109 C637.164985,619.96109 635.68,614.642143 635.68,607.946109 C635.68,600.06207 638.352973,593.555135 643.699,588.425109 C649.045027,583.295084 656.631951,580.730109 666.46,580.730109 C676.180049,580.730109 683.901971,583.214085 689.626,588.182109 C695.350029,593.150134 698.913993,598.874077 700.318,605.354109 L697.078,605.354109 C696.321996,602.114093 694.756012,598.847126 692.38,595.553109 C690.003988,592.259093 686.656022,589.451121 682.336,587.129109 C678.015978,584.807098 672.724031,583.646109 666.46,583.646109 C658.143958,583.646109 651.475025,585.779088 646.453,590.045109 C641.430975,594.311131 638.92,600.278071 638.92,607.946109 C638.92,613.886139 640.296986,618.638092 643.051,622.202109 C645.805014,625.766127 649.17998,628.4661 653.176,630.302109 C657.17202,632.138119 662.679965,634.082099 669.7,636.134109 C676.936036,638.18612 682.767978,640.238099 687.196,642.290109 C691.624022,644.34212 695.376985,647.474088 698.455,651.686109 C701.533015,655.89813 703.072,661.514074 703.072,668.534109 Z" id="SIRIUS" fill="#FA6F69" fill-rule="nonzero"></path>
        </g>
    </g>
</svg>